<svg width="128" height="128" viewBox="0 0 128 128" fill="none" xmlns="http://www.w3.org/2000/svg">
<path d="M38.5286 121.718L30.008 49.548C29.9099 48.7177 30.7273 48 31.7711 48H110.229C111.273 48 112.09 48.7177 111.992 49.548L103.471 121.718C103.386 122.445 102.622 123 101.708 123H40.2918C39.3781 123 38.6144 122.445 38.5286 121.718Z" fill="#FE9292"/>
<path d="M51.9622 70.6415C52.9996 77.2731 54.6186 87.6226 54.6186 87.6226L57.3333 104.604M68.7863 70.6415C68.7863 83.9046 68.7863 91.3407 68.7863 104.604M86.4959 70.6415L81.183 104.604M30.008 49.548L38.5286 121.718C38.6144 122.445 39.3781 123 40.2918 123H101.708C102.622 123 103.386 122.445 103.471 121.718L111.992 49.548C112.09 48.7177 111.273 48 110.229 48H31.7711C30.7273 48 29.9099 48.7177 30.008 49.548Z" stroke="black" stroke-width="5" stroke-linecap="round"/>
<path d="M113.278 37H28.2168C27.5867 37 27.1125 36.4218 27.2756 35.8132C30.0789 25.3529 41.2425 21.7621 46.6596 21.2808C59.4539 21.5303 85.6697 20.5389 96.1429 21.2808C105.611 21.9515 111.613 31.1488 114.148 35.5067C114.534 36.1701 114.046 37 113.278 37Z" fill="#FE9292" stroke="black" stroke-width="5"/>
<path d="M52 19C52 14 55.9121 4 71.5603 4C87.2086 4 90.3536 14 89.97 19" stroke="black" stroke-width="5"/>
</svg>
