<svg width="128" height="128" viewBox="0 0 128 128" fill="none" xmlns="http://www.w3.org/2000/svg">
<path d="M31 23.5H96C99.5899 23.5 102.5 26.4101 102.5 30V95C102.5 98.5899 99.5899 101.5 96 101.5H31C27.4101 101.5 24.5 98.5899 24.5 95V30C24.5 26.4101 27.4101 23.5 31 23.5Z" fill="white" stroke="black" stroke-width="5"/>
<path d="M57.8723 82.0107L42.8404 68.2587L36.0581 88.5652L36.8129 89.4972C36.9072 89.6136 37.0265 89.7074 37.1619 89.7716L37.4835 89.9239L57.8723 82.0107Z" fill="#FEECDC"/>
<path fill-rule="evenodd" clip-rule="evenodd" d="M94.1995 14.5011L110.484 29.5032L113.182 26.8104C115.81 24.1881 115.724 19.9054 112.994 17.3903L106.319 11.2407C103.746 8.87039 99.7615 8.95003 97.2854 11.4212L94.1995 14.5011Z" fill="#F49689"/>
<path d="M42.8404 68.2587L57.8723 82.0107L110.484 29.5032L94.1995 14.5011L42.8404 68.2587Z" fill="#FFD79C"/>
<path d="M42.8404 68.2587L57.8723 82.0107M42.8404 68.2587L94.1995 14.5011M42.8404 68.2587L36.0581 88.5652M57.8723 82.0107L110.484 29.5032M57.8723 82.0107L37.4835 89.9239M57.8723 82.0107L113.182 26.8104M94.1995 14.5011C94.1995 14.5011 104.125 23.6445 110.484 29.5032M94.1995 14.5011L97.2854 11.4212M94.1995 14.5011L110.484 29.5032M110.484 29.5032L113.182 26.8104M36.0581 88.5652C35.7663 89.439 36.6248 90.2572 37.4835 89.9239M36.0581 88.5652L36.8129 89.4972C36.9072 89.6136 37.0265 89.7074 37.1619 89.7716L37.4835 89.9239M97.2854 11.4212C99.7615 8.95003 103.746 8.87039 106.319 11.2407M97.2854 11.4212L97.6431 11.0642C99.9193 8.79255 103.582 8.71934 105.947 10.8982L106.319 11.2407M106.319 11.2407L112.994 17.3903M112.994 17.3903C115.724 19.9054 115.81 24.1881 113.182 26.8104M112.994 17.3903L113.398 17.7626C115.908 20.0747 115.986 24.0117 113.571 26.4222L113.182 26.8104" stroke="black" stroke-width="5"/>
</svg>
